<svg width="93" height="29" viewBox="0 0 93 29" fill="none" xmlns="http://www.w3.org/2000/svg">
<path d="M5.35732 27.7066H0L9.75412 0H15.9502L25.7179 27.7066H20.3605L12.9604 5.68201H12.7439L5.35732 27.7066ZM5.53319 16.8431H20.1441V20.8746H5.53319V16.8431Z" fill="white"/>
<path d="M28.7688 0L35.9796 21.8081H36.2637L43.4609 0H48.9805L39.2129 27.7066H33.0168L23.2627 0H28.7688Z" fill="white"/>
<path d="M56.5061 0V27.7066H51.487V0H56.5061Z" fill="white"/>
<path d="M64.3563 27.7066H58.999L68.7531 0H74.9492L84.7169 27.7066H79.3595L71.9594 5.68201H71.7429L64.3563 27.7066ZM64.5322 16.8431H79.1431V20.8746H64.5322V16.8431Z" fill="white"/>
<path d="M90.0237 28.0042C89.203 28.0042 88.4995 27.7156 87.9133 27.1384C87.327 26.5611 87.0384 25.8577 87.0474 25.0279C87.0384 24.2162 87.327 23.5217 87.9133 22.9445C88.4995 22.3673 89.203 22.0787 90.0237 22.0787C90.8174 22.0787 91.5073 22.3673 92.0936 22.9445C92.6888 23.5217 92.991 24.2162 93 25.0279C92.991 25.5781 92.8467 26.0786 92.5671 26.5296C92.2965 26.9805 91.9358 27.3413 91.4848 27.6119C91.0429 27.8734 90.5558 28.0042 90.0237 28.0042Z" fill="white"/>
</svg>
